<?xml version="1.0" standalone="no"?>
<!DOCTYPE svg PUBLIC "-//W3C//DTD SVG 20010904//EN"
 "http://www.w3.org/TR/2001/REC-SVG-20010904/DTD/svg10.dtd">
<svg version="1.0" xmlns="http://www.w3.org/2000/svg"
 width="677.000000pt" height="101.000000pt" viewBox="0 0 677.000000 101.000000"
 preserveAspectRatio="xMidYMid meet">

<g transform="translate(0.000000,101.000000) scale(0.100000,-0.100000)"
fill="#000000" stroke="none">
<path d="M435 962 c-124 -58 -149 -211 -48 -303 117 -108 303 -24 303 136 0
131 -138 222 -255 167z m190 -114 c52 -24 23 -135 -47 -178 -83 -50 -188 0
-212 102 -10 44 0 58 37 47 51 -14 83 -11 133 16 54 29 55 29 89 13z"/>
<path d="M4895 811 c-99 -25 -143 -108 -100 -191 16 -30 80 -73 126 -84 36 -8
79 -44 79 -66 0 -50 -83 -60 -130 -15 l-31 29 -34 -18 c-44 -24 -44 -43 -2
-83 40 -40 75 -53 138 -53 123 0 204 104 154 200 -20 38 -60 65 -136 92 -57
20 -64 26 -67 52 -2 16 2 32 10 37 23 15 64 10 91 -11 31 -25 32 -25 74 1 l34
21 -28 30 c-49 52 -116 74 -178 59z"/>
<path d="M1320 575 l0 -235 55 0 55 0 0 95 0 95 75 0 75 0 0 45 0 45 -75 0
-75 0 0 45 0 45 95 0 95 0 0 50 0 50 -150 0 -150 0 0 -235z"/>
<path d="M2790 575 l0 -235 50 0 50 0 0 235 0 235 -50 0 -50 0 0 -235z"/>
<path d="M1680 515 l0 -175 50 0 50 0 0 70 c0 113 33 167 109 177 l41 6 0 48
c0 48 -1 49 -30 49 -42 0 -72 -16 -97 -53 l-23 -32 0 43 0 42 -50 0 -50 0 0
-175z"/>
<path d="M2072 669 c-61 -31 -85 -70 -90 -145 -4 -51 0 -70 19 -103 44 -80
164 -113 255 -72 55 25 58 33 25 65 -24 23 -32 25 -55 16 -59 -22 -136 -2
-136 36 0 11 22 14 120 14 l120 0 0 38 c-1 52 -32 115 -71 142 -47 34 -130 38
-187 9z m136 -85 c37 -26 25 -34 -48 -34 -38 0 -70 4 -70 9 0 16 43 41 70 41
14 0 36 -7 48 -16z"/>
<path d="M2490 679 c-109 -44 -150 -167 -88 -267 26 -43 106 -82 167 -82 42 0
131 33 131 49 0 4 -12 19 -27 33 -21 19 -33 24 -48 18 -38 -16 -91 -11 -119
11 -14 11 -24 25 -21 30 4 5 61 9 127 9 l121 0 -7 47 c-9 67 -37 115 -82 140
-42 24 -110 29 -154 12z m118 -95 c38 -26 25 -34 -55 -34 l-76 0 23 25 c27 29
74 33 108 9z"/>
<path d="M3055 676 c-68 -29 -112 -117 -99 -196 9 -57 41 -101 94 -127 55 -28
95 -29 138 -3 26 16 32 17 32 5 0 -11 12 -15 50 -15 l50 0 0 175 0 175 -50 0
c-38 0 -50 -4 -50 -15 0 -19 -9 -19 -34 0 -24 18 -91 19 -131 1z m140 -101
c66 -65 -2 -179 -85 -145 -37 15 -52 41 -52 88 0 72 87 108 137 57z"/>
<path d="M3390 515 l0 -175 55 0 55 0 0 104 c0 96 2 105 25 130 26 28 72 35
93 14 8 -8 12 -52 12 -130 l0 -118 55 0 55 0 0 118 c0 93 -4 125 -19 159 -34
73 -116 95 -185 48 l-36 -24 0 24 c0 24 -3 25 -55 25 l-55 0 0 -175z"/>
<path d="M3892 669 c-62 -31 -97 -87 -96 -154 2 -75 29 -124 90 -157 29 -16
65 -28 87 -28 60 0 147 44 147 75 0 19 -70 48 -85 35 -7 -6 -32 -12 -55 -13
-53 -2 -80 27 -80 85 0 68 63 108 122 77 26 -14 98 5 98 26 0 8 -16 26 -36 41
-50 39 -132 44 -192 13z"/>
<path d="M4252 669 c-61 -31 -85 -70 -90 -145 -4 -51 0 -70 19 -103 44 -80
164 -113 255 -72 55 25 58 33 25 65 -24 23 -32 25 -55 16 -59 -22 -136 -2
-136 36 0 11 22 14 120 14 l120 0 0 38 c-1 52 -32 115 -71 142 -47 34 -130 38
-187 9z m136 -85 c37 -26 25 -34 -48 -34 -73 0 -85 8 -48 34 29 20 67 20 96 0z"/>
<path d="M5170 450 l0 -240 55 0 55 0 0 74 0 74 43 -16 c56 -20 107 -10 154
31 66 58 82 148 40 227 -39 75 -141 111 -209 76 -23 -12 -27 -12 -32 0 -4 9
-22 14 -56 14 l-50 0 0 -240z m245 118 c22 -26 26 -39 21 -67 -16 -99 -143
-104 -162 -7 -6 35 15 90 38 99 38 16 77 6 103 -25z"/>
<path d="M5680 668 c-84 -43 -115 -151 -69 -244 36 -75 133 -113 201 -80 20
11 34 13 36 6 2 -5 28 -10 58 -10 l54 0 0 175 0 175 -55 0 c-43 0 -55 -3 -55
-15 0 -14 -3 -14 -30 0 -41 21 -88 19 -140 -7z m142 -82 c24 -18 40 -65 33
-97 -15 -65 -98 -86 -141 -35 -35 40 -29 100 15 133 21 16 72 16 93 -1z"/>
<path d="M6130 674 c-72 -31 -110 -86 -110 -159 0 -59 19 -104 59 -138 69 -58
173 -61 236 -5 19 16 35 33 35 38 0 4 -18 15 -40 25 -32 14 -42 15 -54 5 -9
-6 -32 -12 -52 -13 -74 -2 -113 95 -59 148 28 28 80 33 110 11 17 -12 24 -12
58 6 l39 19 -23 26 c-48 52 -130 67 -199 37z"/>
<path d="M6485 672 c-139 -65 -140 -260 -1 -323 66 -30 174 -19 211 21 13 15
12 19 -13 44 -25 23 -32 25 -56 16 -43 -16 -90 -12 -114 10 -12 12 -22 25 -22
30 0 6 50 10 121 10 l121 0 -4 55 c-8 91 -62 146 -150 152 -37 3 -65 -2 -93
-15z m135 -97 l23 -25 -77 0 c-72 0 -76 1 -66 19 20 39 86 42 120 6z"/>
<path d="M285 601 c-44 -20 -69 -45 -79 -78 l-7 -23 305 0 c287 0 306 1 306
18 0 29 -30 63 -74 83 -53 24 -87 24 -137 -2 -54 -27 -126 -27 -182 0 -53 26
-80 26 -132 2z"/>
<path d="M174 446 c-13 -21 -15 -53 -12 -206 l3 -180 -57 0 c-32 0 -58 -4 -58
-10 0 -7 157 -10 450 -10 293 0 450 3 450 10 0 6 -24 10 -52 10 l-53 0 3 191
c2 134 -1 195 -9 205 -9 11 -69 14 -330 14 l-319 0 -16 -24z m365 -57 c17 -6
31 -17 31 -25 0 -10 -6 -9 -29 4 -26 14 -34 15 -66 3 -45 -16 -57 -8 -18 13
34 19 41 19 82 5z m-2 -45 c2 -6 -11 -10 -32 -10 -35 1 -42 6 -28 20 10 10 56
3 60 -10z m-27 -34 c0 -5 -4 -10 -10 -10 -5 0 -10 5 -10 10 0 6 5 10 10 10 6
0 10 -4 10 -10z m78 -102 l-3 -73 -78 -3 c-71 -3 -79 -1 -84 17 -3 10 -13 21
-24 24 -28 7 -27 77 1 84 11 3 20 9 20 14 0 5 38 9 85 9 l86 0 -3 -72z"/>
<path d="M400 215 c0 -14 5 -25 10 -25 6 0 10 11 10 25 0 14 -4 25 -10 25 -5
0 -10 -11 -10 -25z"/>
</g>
</svg>
