<?xml version="1.0" standalone="no"?>
<!DOCTYPE svg PUBLIC "-//W3C//DTD SVG 20010904//EN"
 "http://www.w3.org/TR/2001/REC-SVG-20010904/DTD/svg10.dtd">
<svg version="1.0" xmlns="http://www.w3.org/2000/svg"
 width="98.000000pt" height="98.000000pt" viewBox="0 0 98.000000 98.000000"
 preserveAspectRatio="xMidYMid meet">

<g transform="translate(0.000000,98.000000) scale(0.100000,-0.100000)"
fill="#000000" stroke="none">
<path d="M425 932 c-124 -58 -149 -211 -48 -303 117 -108 303 -24 303 136 0
131 -138 222 -255 167z m190 -114 c52 -24 23 -135 -47 -178 -83 -50 -188 0
-212 102 -10 44 0 58 37 47 51 -14 83 -11 133 16 54 29 55 29 89 13z"/>
<path d="M275 571 c-44 -20 -69 -45 -79 -78 l-7 -23 305 0 c287 0 306 1 306
18 0 29 -30 63 -74 83 -53 24 -87 24 -137 -2 -54 -27 -126 -27 -182 0 -53 26
-80 26 -132 2z"/>
<path d="M164 416 c-13 -21 -15 -53 -12 -206 l3 -180 -57 0 c-32 0 -58 -4 -58
-10 0 -7 157 -10 450 -10 293 0 450 3 450 10 0 6 -24 10 -52 10 l-53 0 3 191
c2 134 -1 195 -9 205 -9 11 -69 14 -330 14 l-319 0 -16 -24z m365 -57 c17 -6
31 -17 31 -25 0 -10 -6 -9 -29 4 -26 14 -34 15 -66 3 -45 -16 -57 -8 -18 13
34 19 41 19 82 5z m-2 -45 c2 -6 -11 -10 -32 -10 -35 1 -42 6 -28 20 10 10 56
3 60 -10z m-27 -34 c0 -5 -4 -10 -10 -10 -5 0 -10 5 -10 10 0 6 5 10 10 10 6
0 10 -4 10 -10z m78 -102 l-3 -73 -78 -3 c-71 -3 -79 -1 -84 17 -3 10 -13 21
-24 24 -28 7 -27 77 1 84 11 3 20 9 20 14 0 5 38 9 85 9 l86 0 -3 -72z"/>
<path d="M390 185 c0 -14 5 -25 10 -25 6 0 10 11 10 25 0 14 -4 25 -10 25 -5
0 -10 -11 -10 -25z"/>
</g>
</svg>
